<svg width="400" height="400" viewBox="0 0 400 400" fill="none" xmlns="http://www.w3.org/2000/svg">
<path fill-rule="evenodd" clip-rule="evenodd" d="M238.506 226.799C239.786 229.099 241.226 231.294 242.826 233.362L242.847 233.372C243.573 234.343 244.341 235.271 245.13 236.179L280.713 286.652C254.58 284.436 231.679 271.016 217.002 251.213L217.12 251.129L212.8 245.009L212.714 244.883L196.832 222.389L160.555 170.945L160.47 170.819C159.019 168.403 157.387 166.092 155.595 163.919L155.478 163.771L155.393 163.676C152.758 160.511 149.75 157.641 146.486 155.109C136.822 147.618 124.673 143.177 111.447 143.177C80.0018 143.177 54.4875 168.413 54.4875 199.516C54.4875 230.618 79.9911 255.855 111.447 255.855C132.918 255.855 151.617 244.091 161.334 226.725L180.598 254.04C164.406 274.128 139.436 287 111.447 287C62.6047 287 23 247.826 23 199.516C23 151.205 62.6047 112.032 111.425 112C135.393 112 157.121 121.432 173.046 136.751C176.726 140.275 180.107 144.137 183.104 148.262L183.339 148.557L184.768 150.583L184.917 150.815L202.997 176.442L238.485 226.768C238.495 226.778 238.506 226.799 238.506 226.799ZM288.553 112.032C337.417 112.032 377 151.205 377 199.516C377 247.826 337.406 287 288.553 287C285.972 287 283.433 286.852 280.916 286.641L245.333 236.168C255.765 248.217 271.252 255.855 288.553 255.855C320.02 255.855 345.512 230.618 345.512 199.516C345.512 168.413 320.02 143.176 288.553 143.176C267.124 143.176 248.479 154.877 238.762 172.18L219.498 144.865C235.712 124.85 260.618 112.032 288.553 112.032Z" fill="#FF5813"/>
</svg>
