<svg xmlns="http://www.w3.org/2000/svg" xmlns:xlink="http://www.w3.org/1999/xlink" width="500" zoomAndPan="magnify" viewBox="0 0 375 374.999991" height="500" preserveAspectRatio="xMidYMid meet" version="1.0"><defs><clipPath id="2aae8b1ece"><path d="M 37.5 81.679688 L 243 81.679688 L 243 287.179688 L 37.5 287.179688 Z M 37.5 81.679688 " clip-rule="nonzero"/></clipPath><clipPath id="dcf84dccf6"><path d="M 140.3125 81.679688 C 83.53125 81.679688 37.5 127.714844 37.5 184.496094 C 37.5 241.277344 83.53125 287.308594 140.3125 287.308594 C 197.097656 287.308594 243.128906 241.277344 243.128906 184.496094 C 243.128906 127.714844 197.097656 81.679688 140.3125 81.679688 Z M 140.3125 81.679688 " clip-rule="nonzero"/></clipPath></defs><g clip-path="url(#2aae8b1ece)"><g clip-path="url(#dcf84dccf6)"><path stroke-linecap="butt" transform="matrix(0.75, 0, 0, 0.75, 37.500002, 81.681395)" fill="none" stroke-linejoin="miter" d="M 137.08334 -0.00227725 C 61.375001 -0.00227725 -0.00000271667 61.377935 -0.00000271667 137.086273 C -0.00000271667 212.794612 61.375001 274.169616 137.08334 274.169616 C 212.796886 274.169616 274.17189 212.794612 274.17189 137.086273 C 274.17189 61.377935 212.796886 -0.00227725 137.08334 -0.00227725 Z M 137.08334 -0.00227725 " stroke="#000000" stroke-width="14" stroke-opacity="1" stroke-miterlimit="4"/></g></g><path stroke-linecap="butt" transform="matrix(0.841131, 0.000000000000000082, -0.000000000000000082, 0.841131, 108.977047, 177.11448)" fill="none" stroke-linejoin="miter" d="M -0.000575943 5.000208 L 291.069425 5.000208 " stroke="#000000" stroke-width="10" stroke-opacity="1" stroke-miterlimit="4"/><path stroke-linecap="butt" transform="matrix(0.541091, -0.643989, 0.643989, 0.541091, 108.922586, 178.367727)" fill="none" stroke-linejoin="miter" d="M -0.00240185 4.999056 L 89.617755 4.998284 " stroke="#000000" stroke-width="10" stroke-opacity="1" stroke-miterlimit="4"/><path stroke-linecap="butt" transform="matrix(0.53703, 0.64738, -0.64738, 0.53703, 115.478529, 178.636145)" fill="none" stroke-linejoin="miter" d="M -0.000472219 4.998743 L 90.115681 4.999532 " stroke="#000000" stroke-width="10" stroke-opacity="1" stroke-miterlimit="4"/></svg>